<svg width="122" height="33" viewBox="0 0 122 33" fill="none" xmlns="http://www.w3.org/2000/svg">
<path d="M2.46239 21V0.480107H12.5758C14.7059 0.480107 16.3377 0.919819 17.4712 1.79924C18.6047 2.65913 19.1714 3.77306 19.1714 5.14105C19.1714 6.45042 18.6829 7.48618 17.7057 8.24835C16.7286 8.99098 15.4583 9.3916 13.8949 9.45023V10.9746C15.6733 11.0137 17.1097 11.4241 18.2041 12.2058C19.2985 12.9679 19.8457 14.1014 19.8457 15.6062C19.8457 17.2478 19.1714 18.5572 17.823 19.5343C16.4745 20.5114 14.6375 21 12.3119 21H2.46239ZM6.91814 8.60012H11.6084C13.6799 8.60012 14.7157 7.8575 14.7157 6.37225C14.7157 5.59054 14.4519 5.03357 13.9242 4.70134C13.4161 4.34957 12.6442 4.17369 11.6084 4.17369H6.91814V8.60012ZM6.91814 17.3064H11.667C14.0512 17.3064 15.2433 16.4563 15.2433 14.7561C15.2433 13.0363 14.0512 12.1764 11.667 12.1764H6.91814V17.3064ZM46.9255 21V0.480107H53.785L62.9017 15.7235L64.2208 14.8147C63.4196 13.4663 62.9017 12.4305 62.6672 11.7074C62.4522 10.9648 62.335 9.802 62.3154 8.21904V0.480107H66.7712V21H61.4067L50.7657 3.17701L49.4172 4.02712C50.1403 5.37557 50.6484 6.52859 50.9415 7.48618C51.2347 8.44378 51.3813 9.68474 51.3813 11.2091V21H46.9255ZM71.1896 21V0.480107H80.3942C82.6026 0.480107 84.3907 1.08593 85.7587 2.29758C87.1267 3.48969 87.8107 5.0922 87.8107 7.1051C87.8107 9.118 87.1267 10.7401 85.7587 11.9712C84.3907 13.1829 82.6123 13.7887 80.4235 13.7887H75.6453V21H71.1896ZM75.6453 10.0951H79.6028C80.6776 10.0951 81.5375 9.83132 82.1824 9.30366C82.8469 8.75646 83.1791 8.02361 83.1791 7.1051C83.1791 6.22568 82.8469 5.52214 82.1824 4.99448C81.5179 4.44729 80.6581 4.17369 79.6028 4.17369H75.6453V10.0951ZM101.568 21L99.9259 16.1925H91.6007L89.9005 21H85.1223L92.9492 0.480107H98.724L106.492 21H101.568ZM92.8905 12.4989H98.6654L97.1411 8.04315C96.7893 7.06602 96.6036 5.37557 96.5841 2.97181H95.0011C94.9621 4.49614 94.9132 5.52214 94.8546 6.04979C94.7959 6.71425 94.6591 7.38847 94.4442 8.07247L92.8905 12.4989ZM109.42 21V12.6455L101.975 0.480107H107.134L109.45 4.46683C109.88 5.18991 110.202 5.88368 110.417 6.54813C110.73 7.40801 110.896 8.75646 110.916 10.5935H112.498C112.538 9.20595 112.645 8.11155 112.821 7.3103C112.997 6.50905 113.397 5.54168 114.023 4.4082L116.163 0.480107H121.175L113.876 12.6455V21H109.42Z" fill="white"/>
<path d="M21.8024 10.7987C21.8024 7.67184 22.7991 5.0922 24.7924 3.05975C26.8053 1.0273 29.4631 0.0110818 32.7659 0.0110818C36.0686 0.0110818 38.7166 1.0273 40.71 3.05975C42.7229 5.0922 43.7294 7.67184 43.7294 10.7987C43.7684 13.906 42.7815 16.4661 40.7686 18.479C38.7557 20.4919 36.0881 21.4886 32.7659 21.469C29.4436 21.4886 26.776 20.4919 24.7631 18.479C22.7502 16.4661 21.7633 13.906 21.8024 10.7987ZM39.0684 10.7694C39.0684 8.67829 38.5017 6.97807 37.3682 5.66871C36.2347 4.35934 34.7104 3.70466 32.7952 3.70466C30.8409 3.70466 29.297 4.35934 28.1636 5.66871C27.0301 6.97807 26.4633 8.67829 26.4633 10.7694C26.4633 12.8409 27.0301 14.5313 28.1636 15.8407C29.297 17.1305 30.8409 17.7754 32.7952 17.7754C34.7104 17.7754 36.2347 17.1305 37.3682 15.8407C38.5017 14.5313 39.0684 12.8409 39.0684 10.7694Z" fill="#3D3080"/>
<path d="M91.46 24.98H92.97V26.32H91.46V24.98ZM92.93 27V32H91.51V28.08H89.56V32H88.14V28.08H87.17V27H88.14V26.31C88.14 25.91 88.25 25.5933 88.47 25.36C88.69 25.12 88.9967 25 89.39 25H90.93V26.13H90C89.8467 26.13 89.7333 26.1667 89.66 26.24C89.5933 26.3067 89.56 26.4167 89.56 26.57V27H92.93ZM94.1216 32V27H95.4016C95.3949 27.3 95.2316 27.6833 94.9116 28.15H95.5316C95.6649 27.75 95.8616 27.4333 96.1216 27.2C96.3816 26.9667 96.6949 26.85 97.0616 26.85C97.6016 26.85 98.0182 27.0167 98.3116 27.35C98.6116 27.6767 98.7616 28.1233 98.7616 28.69V32H97.3416V28.96C97.3416 28.3333 97.0749 28.02 96.5416 28.02C96.2416 28.02 96.0182 28.11 95.8716 28.29C95.6516 28.5567 95.5416 29.0033 95.5416 29.63V32H94.1216ZM99.6284 30.72C99.635 30.3933 99.715 30.11 99.8684 29.87C100.022 29.63 100.242 29.4367 100.528 29.29C100.822 29.1433 101.145 29.03 101.498 28.95C101.858 28.8633 102.282 28.7967 102.768 28.75V28.56C102.768 28.1 102.495 27.87 101.948 27.87C101.342 27.87 100.975 28.1333 100.848 28.66L99.5684 28.38C99.6084 27.96 99.8417 27.6 100.268 27.3C100.702 27 101.258 26.85 101.938 26.85C102.658 26.85 103.208 27.0133 103.588 27.34C103.975 27.6667 104.168 28.15 104.168 28.79V30.62C104.168 30.7533 104.185 30.8367 104.218 30.87C104.252 30.9033 104.335 30.92 104.468 30.92H104.908V32H104.318C103.892 32 103.605 31.9267 103.458 31.78C103.318 31.6267 103.242 31.3533 103.228 30.96H102.758C102.505 31.76 101.995 32.16 101.228 32.16C100.768 32.16 100.385 32.0267 100.078 31.76C99.7784 31.4933 99.6284 31.1467 99.6284 30.72ZM102.768 29.95V29.63C102.195 29.7033 101.768 29.8067 101.488 29.94C101.208 30.0733 101.068 30.2867 101.068 30.58C101.068 30.94 101.285 31.12 101.718 31.12C102.018 31.12 102.268 31.02 102.468 30.82C102.668 30.62 102.768 30.33 102.768 29.95ZM105.491 32V27H106.771C106.764 27.3 106.601 27.6833 106.281 28.15H106.901C107.034 27.75 107.231 27.4333 107.491 27.2C107.751 26.9667 108.064 26.85 108.431 26.85C108.971 26.85 109.387 27.0167 109.681 27.35C109.981 27.6767 110.131 28.1233 110.131 28.69V32H108.711V28.96C108.711 28.3333 108.444 28.02 107.911 28.02C107.611 28.02 107.387 28.11 107.241 28.29C107.021 28.5567 106.911 29.0033 106.911 29.63V32H105.491ZM110.947 29.49C110.947 28.71 111.204 28.0767 111.717 27.59C112.231 27.0967 112.871 26.85 113.637 26.85C114.211 26.85 114.707 26.9867 115.127 27.26C115.547 27.5333 115.844 27.8967 116.017 28.35L114.707 28.84C114.501 28.26 114.127 27.97 113.587 27.97C113.234 27.97 112.944 28.1033 112.717 28.37C112.491 28.6367 112.377 29.01 112.377 29.49C112.377 29.97 112.491 30.3467 112.717 30.62C112.951 30.8933 113.244 31.03 113.597 31.03C114.144 31.03 114.531 30.7133 114.757 30.08L116.097 30.56C115.904 31.0467 115.587 31.4367 115.147 31.73C114.707 32.0167 114.201 32.16 113.627 32.16C112.847 32.16 112.204 31.9133 111.697 31.42C111.197 30.9267 110.947 30.2833 110.947 29.49ZM116.49 29.49C116.49 28.7233 116.73 28.0933 117.21 27.6C117.69 27.1 118.294 26.85 119.02 26.85C119.774 26.85 120.367 27.0967 120.8 27.59C121.234 28.0833 121.45 28.72 121.45 29.5C121.45 29.6533 121.447 29.7667 121.44 29.84H117.91C117.93 30.2467 118.04 30.5567 118.24 30.77C118.44 30.9767 118.704 31.08 119.03 31.08C119.55 31.08 119.937 30.79 120.19 30.21L121.46 30.7C121.287 31.1 121.007 31.4467 120.62 31.74C120.24 32.02 119.71 32.16 119.03 32.16C118.264 32.16 117.647 31.92 117.18 31.44C116.72 30.9533 116.49 30.3033 116.49 29.49ZM117.96 28.84H120.04C119.967 28.1933 119.627 27.87 119.02 27.87C118.734 27.87 118.497 27.9533 118.31 28.12C118.124 28.2867 118.007 28.5267 117.96 28.84Z" fill="white"/>
</svg>
