<svg width="120" height="25" viewBox="0 0 120 25" fill="none" xmlns="http://www.w3.org/2000/svg">
<path d="M7.55016 22.2502C16.6045 22.2502 21.5583 14.7469 21.5583 8.24211C21.5583 8.03117 21.5536 7.81554 21.5442 7.6046C22.5079 6.90771 23.3395 6.0445 24 5.05554C23.1025 5.45484 22.1496 5.71563 21.1739 5.82898C22.2013 5.21315 22.9705 4.24572 23.3391 3.10601C22.3726 3.6788 21.3156 4.08286 20.2134 4.30085C19.4708 3.51181 18.489 2.98936 17.4197 2.8143C16.3504 2.63923 15.2532 2.82129 14.2977 3.33234C13.3423 3.84339 12.5818 4.65495 12.1338 5.64156C11.6859 6.62816 11.5754 7.73486 11.8195 8.79054C9.86249 8.69233 7.94794 8.18395 6.19998 7.29834C4.45203 6.41274 2.90969 5.16968 1.67297 3.64976C1.0444 4.73349 0.852057 6.01589 1.13503 7.23634C1.418 8.45678 2.15506 9.52369 3.19641 10.2202C2.41463 10.1954 1.64998 9.98492 0.965625 9.60617V9.6671C0.964925 10.8044 1.3581 11.9068 2.07831 12.787C2.79852 13.6672 3.80132 14.2708 4.91625 14.4952C4.19206 14.6934 3.43198 14.7222 2.69484 14.5796C3.00945 15.5577 3.62157 16.4131 4.44577 17.0266C5.26997 17.64 6.26512 17.9808 7.29234 18.0015C5.54842 19.3714 3.39417 20.1144 1.17656 20.1109C0.783287 20.1103 0.390399 20.0861 0 20.0387C2.25286 21.484 4.87353 22.2516 7.55016 22.2502Z" fill="#FCFAFF"/>
<g clip-path="url(#clip0_3503_14960)">
<path d="M72 12.5C72 5.87258 66.6274 0.5 60 0.5C53.3726 0.5 48 5.87258 48 12.5C48 18.4895 52.3882 23.454 58.125 24.3542V15.9688H55.0781V12.5H58.125V9.85625C58.125 6.84875 59.9166 5.1875 62.6576 5.1875C63.9701 5.1875 65.3438 5.42188 65.3438 5.42188V8.375H63.8306C62.34 8.375 61.875 9.30008 61.875 10.25V12.5H65.2031L64.6711 15.9688H61.875V24.3542C67.6118 23.454 72 18.4895 72 12.5Z" fill="#FCFAFF"/>
</g>
<g clip-path="url(#clip1_3503_14960)">
<path d="M108 2.66094C111.206 2.66094 111.586 2.675 112.847 2.73125C114.019 2.78281 114.652 2.97969 115.073 3.14375C115.631 3.35938 116.034 3.62188 116.452 4.03906C116.873 4.46094 117.131 4.85938 117.347 5.41719C117.511 5.83906 117.708 6.47656 117.759 7.64375C117.816 8.90937 117.83 9.28906 117.83 12.4906C117.83 15.6969 117.816 16.0766 117.759 17.3375C117.708 18.5094 117.511 19.1422 117.347 19.5641C117.131 20.1219 116.869 20.525 116.452 20.9422C116.03 21.3641 115.631 21.6219 115.073 21.8375C114.652 22.0016 114.014 22.1984 112.847 22.25C111.581 22.3062 111.202 22.3203 108 22.3203C104.794 22.3203 104.414 22.3062 103.153 22.25C101.981 22.1984 101.348 22.0016 100.927 21.8375C100.369 21.6219 99.9656 21.3594 99.5484 20.9422C99.1266 20.5203 98.8688 20.1219 98.6531 19.5641C98.4891 19.1422 98.2922 18.5047 98.2406 17.3375C98.1844 16.0719 98.1703 15.6922 98.1703 12.4906C98.1703 9.28438 98.1844 8.90469 98.2406 7.64375C98.2922 6.47187 98.4891 5.83906 98.6531 5.41719C98.8688 4.85938 99.1313 4.45625 99.5484 4.03906C99.9703 3.61719 100.369 3.35938 100.927 3.14375C101.348 2.97969 101.986 2.78281 103.153 2.73125C104.414 2.675 104.794 2.66094 108 2.66094ZM108 0.5C104.742 0.5 104.334 0.514062 103.055 0.570312C101.78 0.626563 100.903 0.832812 100.144 1.12812C99.3516 1.4375 98.6813 1.84531 98.0156 2.51562C97.3453 3.18125 96.9375 3.85156 96.6281 4.63906C96.3328 5.40313 96.1266 6.275 96.0703 7.55C96.0141 8.83437 96 9.24219 96 12.5C96 15.7578 96.0141 16.1656 96.0703 17.4453C96.1266 18.7203 96.3328 19.5969 96.6281 20.3563C96.9375 21.1484 97.3453 21.8188 98.0156 22.4844C98.6813 23.15 99.3516 23.5625 100.139 23.8672C100.903 24.1625 101.775 24.3687 103.05 24.425C104.33 24.4812 104.738 24.4953 107.995 24.4953C111.253 24.4953 111.661 24.4812 112.941 24.425C114.216 24.3687 115.092 24.1625 115.852 23.8672C116.639 23.5625 117.309 23.15 117.975 22.4844C118.641 21.8188 119.053 21.1484 119.358 20.3609C119.653 19.5969 119.859 18.725 119.916 17.45C119.972 16.1703 119.986 15.7625 119.986 12.5047C119.986 9.24688 119.972 8.83906 119.916 7.55938C119.859 6.28438 119.653 5.40781 119.358 4.64844C119.062 3.85156 118.655 3.18125 117.984 2.51562C117.319 1.85 116.648 1.4375 115.861 1.13281C115.097 0.8375 114.225 0.63125 112.95 0.575C111.666 0.514063 111.258 0.5 108 0.5Z" fill="#FCFAFF"/>
<path d="M108 6.33594C104.597 6.33594 101.836 9.09688 101.836 12.5C101.836 15.9031 104.597 18.6641 108 18.6641C111.403 18.6641 114.164 15.9031 114.164 12.5C114.164 9.09688 111.403 6.33594 108 6.33594ZM108 16.4984C105.792 16.4984 104.002 14.7078 104.002 12.5C104.002 10.2922 105.792 8.50156 108 8.50156C110.208 8.50156 111.998 10.2922 111.998 12.5C111.998 14.7078 110.208 16.4984 108 16.4984Z" fill="#FCFAFF"/>
<path d="M115.847 6.09238C115.847 6.88926 115.2 7.53145 114.408 7.53145C113.611 7.53145 112.969 6.88457 112.969 6.09238C112.969 5.29551 113.616 4.65332 114.408 4.65332C115.2 4.65332 115.847 5.3002 115.847 6.09238Z" fill="#FCFAFF"/>
</g>
<defs>
<clipPath id="clip0_3503_14960">
<rect width="24" height="24" fill="white" transform="translate(48 0.5)"/>
</clipPath>
<clipPath id="clip1_3503_14960">
<rect width="24" height="24" fill="white" transform="translate(96 0.5)"/>
</clipPath>
</defs>
</svg>
